<?xml version="1.0" encoding="utf-8"?>
<!-- Generator: Adobe Illustrator 23.1.0, SVG Export Plug-In . SVG Version: 6.00 Build 0)  -->
<svg version="1.1" id="Capa_1" xmlns="http://www.w3.org/2000/svg" xmlns:xlink="http://www.w3.org/1999/xlink" x="0px" y="0px"
	 viewBox="0 0 154 154" style="enable-background:new 0 0 154 154;" xml:space="preserve">
<style type="text/css">
	.st0{fill:#9D9CA1;}
	.st1{fill:#0062A1;}
	.st2{fill:#4C525A;}
	.st3{font-family:'Verdana';}
	.st4{font-size:4.5421px;}
</style>
<path class="st0" d="M42,58.8h3.8c0.5,0,1,0,1.4,0.1c0.4,0,0.7,0.3,0.8,0.7C48,59.8,48,60,48,60.1v0.5v1.6V68c0,0.5,0,1.1,0,1.8
	c0,0.7,0.1,1.2,0.3,1.5c0.2,0.2,0.3,0.3,0.5,0.3c0.2,0,0.4,0.1,0.7,0.1h9c0.6,0,1.1,0,1.7,0c0.6,0,1-0.2,1.2-0.6
	c0.2-0.3,0.2-0.7,0.2-1.3c0-0.6,0-1.1,0-1.5v-6.1c0-0.5,0-1,0-1.6c0-0.6,0.1-1.1,0.3-1.3c0.1-0.2,0.3-0.3,0.6-0.3
	c0.3-0.1,0.6-0.1,1-0.1c0.4,0,0.8,0,1.1,0c0.4,0,0.7,0,1,0c0.5,0,1.1,0,1.7,0c0.6,0,1,0.1,1.3,0.4c0.2,0.2,0.3,0.4,0.3,0.8V61v4.6
	v19.2V90v1.2c0,0.4-0.1,0.7-0.3,0.8c-0.3,0.3-0.7,0.4-1.3,0.4c-0.6,0-1.2,0-1.7,0c-0.3,0-0.6,0-1,0c-0.4,0-0.7,0-1.1,0
	c-0.4,0-0.7,0-1-0.1c-0.3,0-0.5-0.1-0.6-0.3c-0.1-0.1-0.2-0.3-0.2-0.6c0-0.3-0.1-0.6-0.1-0.9c0-0.3,0-0.7,0-1c0-0.3,0-0.6,0-0.9
	v-6.8v-1.4c0-0.1,0-0.2,0-0.4c0-0.1,0-0.3,0-0.4v-0.5c0-0.1,0-0.2,0-0.3c0-0.1,0-0.2,0-0.3c-0.2-0.4-0.6-0.7-1.2-0.7h-1.8h-9.3
	c-0.3,0.1-0.5,0.1-0.6,0.2c-0.2,0-0.3,0.2-0.4,0.4c-0.1,0.2-0.1,0.4-0.2,0.7v0.5c0,0.2,0,0.3,0,0.5c0,0.2,0,0.4,0,0.5v2.1v6.5v1.5
	c0,0.5-0.1,0.9-0.3,1.2c-0.1,0.2-0.3,0.3-0.6,0.3c-0.3,0-0.6,0.1-1,0.1c-0.4,0-0.7,0-1.1,0c-0.4,0-0.7,0-1,0c-0.4,0-1,0-1.6,0
	c-0.6,0-1.1-0.1-1.3-0.3c-0.3-0.2-0.4-0.5-0.4-0.9c0-0.4,0-0.8,0-1.3v-5.4V65.7v-4.4v-1.1c0-0.4,0.1-0.7,0.2-0.9
	c0.1-0.2,0.3-0.4,0.7-0.5c0.1,0,0.1,0,0.2,0C41.8,58.8,41.9,58.8,42,58.8"/>
<path class="st1" d="M20.1,58.9c2.1-2.2,2.5-3,4.3-2.7c1.8,0.3,2.9,1.6,2.9,2.7c0,1.1-1,11.6-1,11.6s6.8-10.6,8-11.9
	c1.2-1.3,3.4-4.4,5.9-3.6c2.5,0.7,3.7,1.4,3.3,3.5c-0.4,2.1-8.1,28.8-8.9,33.3c-0.8,4.6-1.8,9-3,9.6c-1.2,0.5-2.8,1.1-4.3,0.9
	c-1.5-0.2-1-5.6-0.7-6.8c0.3-1.2,2.1-13.9,7.2-26.5c-2.9,5.4-7.6,14.3-8.6,16.4c-1.1,2.1-2.6,3.1-3.8,3.1c-1.3,0-4.3-0.1-3.6-5.3
	c0.6-5.2,1.8-12.8,1.8-12.8c-2.7,3.5-6.4,11.7-7.3,14c-0.9,2.3-1.4,3.7-4.2,3.6c-2.8-0.1-3.4-2.6-2.6-4.4
	C6.3,82,17.9,61.2,20.1,58.9"/>
<path class="st2" d="M2.7,67h4c0.3,0,0.7,0,1,0c0.3,0,0.5,0.1,0.7,0.3c0.2,0.2,0.2,0.4,0.3,0.7c0,0.3,0,0.6,0,1v3.5v13.9v6.6
	c0,0.3,0,0.7,0,1.2c0,0.4-0.1,0.7-0.2,1c-0.1,0.2-0.4,0.3-0.8,0.4c-0.2,0.1-0.5,0.1-0.7,0c-0.3,0-0.5,0-0.8,0H3.5c-0.3,0-0.7,0-1,0
	c-0.3,0-0.5-0.1-0.7-0.2c-0.2-0.1-0.3-0.3-0.3-0.6c0-0.3,0-0.5,0-0.8v-3.5V75.7v-5.8c0-0.4,0-0.8,0-1.3c0-0.5,0.1-0.9,0.2-1.1
	C1.8,67.3,2,67.1,2.2,67c0.1,0,0.2,0,0.3,0C2.6,67,2.7,67,2.7,67"/>
<path class="st2" d="M8.5,63.8c0,0.5-0.4,0.8-0.8,0.8H2.5c-0.5,0-0.8-0.4-0.8-0.8v-5.2c0-0.5,0.4-0.8,0.8-0.8h5.2
	c0.5,0,0.8,0.4,0.8,0.8V63.8z"/>
<g>
	<path class="st2" d="M75.5,60.9v1h1.8v0.9h-1.8v1.8h-1.1V60h3.1v1H75.5z"/>
	<path class="st2" d="M81.6,64.7l-0.4-0.9h-1.8l-0.3,0.9h-1.2l2-4.7h1.1l2,4.7H81.6z M80.4,61.2l-0.6,1.6H81L80.4,61.2z"/>
	<path class="st2" d="M85.4,64.7h-1.9V60h1.9c0.7,0,1.6,0.3,1.6,1.2c0,0.5-0.3,0.9-0.8,1v0c0.5,0.1,1,0.5,1,1.1
		C87.2,64.3,86.3,64.7,85.4,64.7z M85.2,60.9h-0.6v1h0.6c0.4,0,0.7-0.2,0.7-0.5C85.9,61,85.7,60.9,85.2,60.9z M85.3,62.7h-0.6v1.1
		h0.6c0.4,0,0.8-0.1,0.8-0.6C86.1,62.8,85.8,62.7,85.3,62.7z"/>
	<path class="st2" d="M90.8,64.7l-1-1.9h-0.4v1.9h-1.1V60H90c0.9,0,1.8,0.3,1.8,1.4c0,0.6-0.4,1.1-1,1.3l1.2,2H90.8z M90,60.9h-0.6
		V62h0.5c0.4,0,0.8-0.1,0.8-0.6C90.7,61,90.3,60.9,90,60.9z"/>
	<path class="st2" d="M92.9,64.7V60h1.1v4.7H92.9z"/>
	<path class="st2" d="M98.2,64.7l-1.7-2.2h0v2.2h-1.1V60h1.1v1.9h0l1.7-1.9h1.4l-2,2.2l2.1,2.5H98.2z"/>
	<path class="st2" d="M103.5,64.7l-0.4-0.9h-1.8l-0.3,0.9h-1.2l2-4.7h1.1l2,4.7H103.5z M102.2,61.2l-0.6,1.6h1.2L102.2,61.2z"/>
	<path class="st2" d="M105.2,64.7v-1l2.2-2.8h-2.2v-1h3.6v0.9l-2.3,2.8h2.3v1H105.2z"/>
	<path class="st2" d="M109.9,64.7V60h1.1v4.7H109.9z"/>
	<path class="st2" d="M114.6,64.8c-1.5,0-2.6-1-2.6-2.5c0-1.5,1.1-2.5,2.6-2.5c1.5,0,2.6,0.9,2.6,2.5
		C117.2,63.8,116.1,64.8,114.6,64.8z M114.6,60.9c-0.8,0-1.3,0.6-1.3,1.4c0,0.8,0.6,1.5,1.3,1.5s1.3-0.6,1.3-1.5
		C116,61.5,115.4,60.9,114.6,60.9z"/>
	<path class="st2" d="M121.4,64.7l-0.4-0.9h-1.8l-0.3,0.9h-1.2l2-4.7h1.1l2,4.7H121.4z M120.1,61.2l-0.6,1.6h1.2L120.1,61.2z"/>
	<path class="st2" d="M125.8,64.7l-1-1.9h-0.4v1.9h-1.1V60h1.8c0.9,0,1.8,0.3,1.8,1.4c0,0.6-0.4,1.1-1,1.3l1.2,2H125.8z M125,60.9
		h-0.6V62h0.5c0.4,0,0.8-0.1,0.8-0.6C125.8,61,125.4,60.9,125,60.9z"/>
	<path class="st2" d="M128,64.7V60h3.2v1h-2.1v0.9h2v0.9h-2v1h2.2v1H128z"/>
	<path class="st2" d="M135.3,64.7l-1.9-3.1h0l0,3.1h-1.1V60h1.3l1.9,3.1h0l0-3.1h1.1v4.7H135.3z"/>
</g>
<g>
	<g>
		<path class="st2" d="M74,73v-1l2.2-2.8h-2.2v-1h3.6v0.9L75.4,72h2.3v1H74z"/>
		<path class="st2" d="M78.8,73v-4.7h3.2v1h-2.1v0.9h2v0.9h-2v1H82v1H78.8z"/>
		<path class="st2" d="M86,73l-1.9-3.1h0l0,3.1h-1.1v-4.7h1.3l1.9,3.1h0l0-3.1h1.1V73H86z"/>
		<path class="st2" d="M90.6,69.3V73h-1.1v-3.7h-1.3v-1h3.8v1H90.6z"/>
		<path class="st2" d="M95.2,73l-1-1.9h-0.4V73h-1.1v-4.7h1.8c0.9,0,1.8,0.3,1.8,1.4c0,0.6-0.4,1.1-1,1.3l1.2,2H95.2z M94.4,69.2
			h-0.6v1.1h0.5c0.4,0,0.8-0.1,0.8-0.6C95.2,69.3,94.7,69.2,94.4,69.2z"/>
		<path class="st2" d="M99.7,73.1c-1.5,0-2.6-1-2.6-2.5c0-1.5,1.1-2.5,2.6-2.5c1.5,0,2.6,0.9,2.6,2.5
			C102.3,72.1,101.2,73.1,99.7,73.1z M99.7,69.2c-0.8,0-1.3,0.6-1.3,1.4c0,0.8,0.6,1.5,1.3,1.5s1.3-0.6,1.3-1.5
			C101,69.8,100.5,69.2,99.7,69.2z"/>
		<path class="st2" d="M108.4,73l-0.4-0.9h-1.8l-0.3,0.9h-1.2l2-4.7h1.1l2,4.7H108.4z M107.1,69.6l-0.6,1.6h1.2L107.1,69.6z"/>
		<path class="st2" d="M112.3,73.1c-1.2,0-2-0.8-2-1.9v-2.9h1.1v2.8c0,0.5,0.2,1,0.9,1c0.6,0,0.9-0.5,0.9-1v-2.8h1.1v2.9
			C114.3,72.4,113.5,73.1,112.3,73.1z"/>
		<path class="st2" d="M118,73l-1-1.9h-0.4V73h-1.1v-4.7h1.8c0.9,0,1.8,0.3,1.8,1.4c0,0.6-0.4,1.1-1,1.3l1.2,2H118z M117.2,69.2
			h-0.6v1.1h0.5c0.4,0,0.8-0.1,0.8-0.6C118,69.3,117.5,69.2,117.2,69.2z"/>
		<path class="st2" d="M122.7,73l-1-1.9h-0.4V73h-1.1v-4.7h1.8c0.9,0,1.8,0.3,1.8,1.4c0,0.6-0.4,1.1-1,1.3l1.2,2H122.7z M121.9,69.2
			h-0.6v1.1h0.5c0.4,0,0.8-0.1,0.8-0.6C122.6,69.3,122.2,69.2,121.9,69.2z"/>
		<path class="st2" d="M124.8,73v-4.7h3.2v1h-2.1v0.9h2v0.9h-2v1h2.2v1H124.8z"/>
		<path class="st2" d="M131.7,73l-1-1.9h-0.4V73h-1.1v-4.7h1.8c0.9,0,1.8,0.3,1.8,1.4c0,0.6-0.4,1.1-1,1.3l1.2,2H131.7z M130.9,69.2
			h-0.6v1.1h0.5c0.4,0,0.8-0.1,0.8-0.6C131.6,69.3,131.2,69.2,130.9,69.2z"/>
		<path class="st2" d="M137,73l-0.4-0.9h-1.8l-0.3,0.9h-1.2l2-4.7h1.1l2,4.7H137z M135.7,69.6l-0.6,1.6h1.2L135.7,69.6z"/>
		<path class="st2" d="M140.9,69.3V73h-1.1v-3.7h-1.3v-1h3.8v1H140.9z"/>
		<path class="st2" d="M145,73.1c-1.2,0-2-0.8-2-1.9v-2.9h1.1v2.8c0,0.5,0.2,1,0.9,1c0.6,0,0.9-0.5,0.9-1v-2.8h1.1v2.9
			C147,72.4,146.2,73.1,145,73.1z"/>
		<path class="st2" d="M151.4,73l-0.4-0.9h-1.8l-0.3,0.9h-1.2l2-4.7h1.1l2,4.7H151.4z M150.1,69.6l-0.6,1.6h1.2L150.1,69.6z"/>
	</g>
</g>
<g>
	<g>
		<path class="st2" d="M78.4,82.1C78,82.6,77.4,83,76.6,83c-1.4,0-2.4-1-2.4-2.5c0-1.4,1-2.5,2.4-2.5c0.7,0,1.3,0.3,1.7,0.7
			l-0.4,0.3c-0.2-0.3-0.7-0.6-1.3-0.6c-1.2,0-2,1-2,2.1c0,1.1,0.7,2.1,2,2.1c0.5,0,1.1-0.2,1.4-0.7L78.4,82.1z"/>
		<path class="st2" d="M79.9,82.4h2.5v0.4h-3v-4.7h2.9v0.4h-2.4v1.6h2.3v0.4h-2.3V82.4z"/>
		<path class="st2" d="M87,82.2L87,82.2l0-4h0.5v4.7h-0.6l-2.7-4h0v4h-0.5v-4.7h0.6L87,82.2z"/>
		<path class="st2" d="M90.5,82.9H90v-4.3h-1.6v-0.4h3.6v0.4h-1.6V82.9z"/>
		<path class="st2" d="M93.6,82.9h-0.5v-4.7h1.4c0.9,0,1.6,0.3,1.6,1.3c0,0.7-0.5,1.1-1.2,1.2l1.4,2.2h-0.6l-1.3-2.2h-0.8V82.9z
			 M93.6,80.2h0.8c0.8,0,1.2-0.3,1.2-0.8c0-0.6-0.5-0.8-1.2-0.8h-0.8V80.2z"/>
		<path class="st2" d="M99.5,83c-1.4,0-2.4-1-2.4-2.5c0-1.4,1-2.5,2.4-2.5c1.4,0,2.4,1,2.4,2.5C102,81.9,100.9,83,99.5,83z
			 M99.5,78.5c-1.2,0-1.9,1-1.9,2.1c0,1.1,0.7,2,1.9,2s1.9-0.9,1.9-2C101.5,79.4,100.7,78.5,99.5,78.5z"/>
		<path class="st2" d="M105.2,82.9h-0.5l2-4.7h0.5l2,4.7h-0.5l-0.5-1.2h-2.4L105.2,82.9z M105.8,81.2h2.1l-1-2.5L105.8,81.2z"/>
		<path class="st2" d="M111.6,82.2L111.6,82.2l1.5-4.1h0.5l-1.8,4.7h-0.5l-1.8-4.7h0.5L111.6,82.2z"/>
		<path class="st2" d="M114.5,82.9H114l2-4.7h0.5l2,4.7H118l-0.5-1.2H115L114.5,82.9z M115.2,81.2h2.1l-1-2.5L115.2,81.2z"/>
		<path class="st2" d="M122.8,82.2L122.8,82.2l0-4h0.5v4.7h-0.6l-2.7-4h0v4h-0.5v-4.7h0.6L122.8,82.2z"/>
		<path class="st2" d="M127.7,78.6l-2.7,3.9h2.8v0.4h-3.4v-0.4l2.7-3.9h-2.7v-0.4h3.3V78.6z"/>
		<path class="st2" d="M128.8,82.9h-0.5l2-4.7h0.5l2,4.7h-0.5l-0.5-1.2h-2.4L128.8,82.9z M129.5,81.2h2.1l-1-2.5L129.5,81.2z"/>
		<path class="st2" d="M133.8,78.2h1.6c1.2,0,2.5,0.8,2.5,2.3s-1.3,2.3-2.5,2.3h-1.6V78.2z M134.3,82.4h0.9c1.4,0,2.1-1,2.1-1.9
			c0-1-0.7-1.9-2.1-1.9h-0.9V82.4z"/>
		<path class="st2" d="M141.3,83c-1.4,0-2.4-1-2.4-2.5c0-1.4,1-2.5,2.4-2.5c1.4,0,2.4,1,2.4,2.5C143.7,81.9,142.7,83,141.3,83z
			 M141.3,78.5c-1.2,0-1.9,1-1.9,2.1c0,1.1,0.7,2,1.9,2c1.2,0,1.9-0.9,1.9-2C143.2,79.4,142.5,78.5,141.3,78.5z"/>
	</g>
</g>
<text transform="matrix(1 0 0 1 74.8301 85.0147)" class="st2 st3 st4"> </text>
<g>
	<g>
		<path class="st2" d="M74.4,86.5H76c1.2,0,2.5,0.8,2.5,2.3s-1.3,2.3-2.5,2.3h-1.6V86.5z M74.9,90.8h0.9c1.4,0,2.1-1,2.1-1.9
			s-0.7-1.9-2.1-1.9h-0.9V90.8z"/>
		<path class="st2" d="M80.2,90.8h2.5v0.4h-3v-4.7h2.9v0.4h-2.4v1.6h2.3V89h-2.3V90.8z"/>
		<path class="st2" d="M86.3,91.2h-0.5v-4.7h2.8v0.4h-2.4v1.6h2.2V89h-2.2V91.2z"/>
		<path class="st2" d="M89.8,91.2h-0.5l2-4.7h0.5l2,4.7h-0.5L92.8,90h-2.4L89.8,91.2z M90.5,89.5h2.1l-1-2.5L90.5,89.5z"/>
		<path class="st2" d="M94.8,86.5h1.4c0.7,0,1.5,0.3,1.5,1.2c0,0.5-0.3,0.9-0.8,1v0c0.6,0.1,1.1,0.5,1.1,1.2c0,0.8-0.7,1.3-1.8,1.3
			h-1.4V86.5z M95.3,88.6h1c0.5,0,1-0.2,1-0.8c0-0.6-0.5-0.8-1.1-0.8h-0.8V88.6z M95.3,90.8h0.9c0.7,0,1.3-0.3,1.3-0.9
			c0-0.6-0.4-0.9-1.2-0.9h-1V90.8z"/>
		<path class="st2" d="M99.8,91.2h-0.5v-4.7h1.4c0.9,0,1.6,0.3,1.6,1.3c0,0.7-0.5,1.1-1.2,1.2l1.4,2.2h-0.6l-1.3-2.2h-0.8V91.2z
			 M99.8,88.6h0.8c0.8,0,1.2-0.3,1.2-0.8c0-0.6-0.5-0.8-1.2-0.8h-0.8V88.6z"/>
		<path class="st2" d="M104,91.2h-0.5v-4.7h0.5V91.2z"/>
		<path class="st2" d="M109.5,90.4c-0.3,0.5-0.9,0.9-1.8,0.9c-1.4,0-2.4-1-2.4-2.5c0-1.4,1-2.5,2.4-2.5c0.7,0,1.3,0.3,1.7,0.7
			l-0.4,0.3c-0.2-0.3-0.7-0.6-1.3-0.6c-1.2,0-2,1-2,2.1c0,1.1,0.7,2.1,2,2.1c0.5,0,1.1-0.2,1.4-0.7L109.5,90.4z"/>
		<path class="st2" d="M110.6,91.2H110l2-4.7h0.5l2,4.7H114l-0.5-1.2h-2.4L110.6,91.2z M111.3,89.5h2.1l-1-2.5L111.3,89.5z"/>
		<path class="st2" d="M119.5,90.4c-0.3,0.5-0.9,0.9-1.8,0.9c-1.4,0-2.4-1-2.4-2.5c0-1.4,1-2.5,2.4-2.5c0.7,0,1.3,0.3,1.7,0.7
			l-0.4,0.3c-0.2-0.3-0.7-0.6-1.3-0.6c-1.2,0-2,1-2,2.1c0,1.1,0.7,2.1,2,2.1c0.5,0,1.1-0.2,1.4-0.7L119.5,90.4z"/>
		<path class="st2" d="M121.1,91.2h-0.5v-4.7h0.5V91.2z"/>
		<path class="st2" d="M124.8,91.3c-1.4,0-2.4-1-2.4-2.5c0-1.4,1-2.5,2.4-2.5c1.4,0,2.4,1,2.4,2.5C127.2,90.3,126.2,91.3,124.8,91.3
			z M124.8,86.8c-1.2,0-1.9,1-1.9,2.1c0,1.1,0.7,2,1.9,2c1.2,0,1.9-0.9,1.9-2C126.7,87.7,126,86.8,124.8,86.8z M124.8,86.1h-0.4
			l0.7-1h0.6L124.8,86.1z"/>
		<path class="st2" d="M131.8,90.5L131.8,90.5l0-4h0.5v4.7h-0.6l-2.7-4h0v4h-0.5v-4.7h0.6L131.8,90.5z"/>
	</g>
</g>
</svg>
